<svg xmlns="http://www.w3.org/2000/svg" aria-hidden="true" style="position:absolute;width:0;height:0;overflow:hidden">
    <defs>
        <symbol id="close-dagger" viewBox="0 0 32 32">
            <path
                d="M21.643 14.023 32 26.032c-.476 1.678-1.286 3.02-2.429 4.027-1.095.959-2.429 1.438-4 1.438-.524 0-1.167-.144-1.929-.432a5.097 5.097 0 0 1-1.857-1.51l-6.857-8.413-3.786-3.38L-.001 6.256C.38 4.77 1.166 3.428 2.356 2.229 3.594.983 4.904.359 6.285.359c.667 0 1.262.144 1.786.431a3.84 3.84 0 0 1 1.5 1.151l8.643 9.42 3.429 2.661zm7.214-4.099-7.786 8.126-4.5 3.524L7 32.001c-1.905-.288-3.5-1.031-4.786-2.229C.976 28.526.357 27.279.357 26.033c0-.527.143-1.055.429-1.582.333-.575.81-1.199 1.429-1.87l8-8.629 4.214-2.733L25.072.001c1.476.479 2.786 1.294 3.929 2.445s1.714 2.445 1.714 3.883c0 .527-.143 1.103-.429 1.726-.286.575-.762 1.198-1.429 1.87z" />
        </symbol>
    </defs>
</svg>